<svg width="300" height="60" viewBox="0 0 300 60" fill="none" xmlns="http://www.w3.org/2000/svg">
<path d="M208.318 48.5455C205.864 48.5455 203.75 47.9659 201.977 46.8068C200.205 45.6477 198.841 44.0511 197.886 42.017C196.932 39.983 196.455 37.6591 196.455 35.0455C196.455 32.3864 196.943 30.0398 197.92 28.0057C198.909 25.9602 200.284 24.3636 202.045 23.2159C203.818 22.0568 205.886 21.4773 208.25 21.4773C210.091 21.4773 211.75 21.8182 213.227 22.5C214.705 23.1818 215.915 24.1364 216.858 25.3636C217.801 26.5909 218.386 28.0227 218.614 29.6591H214.591C214.284 28.4659 213.602 27.4091 212.545 26.4886C211.5 25.5568 210.091 25.0909 208.318 25.0909C206.75 25.0909 205.375 25.5 204.193 26.3182C203.023 27.125 202.108 28.267 201.449 29.7443C200.801 31.2102 200.477 32.9318 200.477 34.9091C200.477 36.9318 200.795 38.6932 201.432 40.1932C202.08 41.6932 202.989 42.858 204.159 43.6875C205.341 44.517 206.727 44.9318 208.318 44.9318C209.364 44.9318 210.312 44.75 211.165 44.3864C212.017 44.0227 212.739 43.5 213.33 42.8182C213.92 42.1364 214.341 41.3182 214.591 40.3636H218.614C218.386 41.9091 217.824 43.3011 216.926 44.5398C216.04 45.767 214.864 46.7443 213.398 47.4716C211.943 48.1875 210.25 48.5455 208.318 48.5455ZM228.517 32.25V48H224.494V13.0909H228.517V25.9091H228.858C229.472 24.5568 230.392 23.483 231.619 22.6875C232.858 21.8807 234.506 21.4773 236.562 21.4773C238.347 21.4773 239.909 21.8352 241.25 22.5511C242.591 23.2557 243.631 24.3409 244.369 25.8068C245.119 27.2614 245.494 29.1136 245.494 31.3636V48H241.472V31.6364C241.472 29.5568 240.932 27.9489 239.852 26.8125C238.784 25.6648 237.301 25.0909 235.403 25.0909C234.085 25.0909 232.903 25.3693 231.858 25.9261C230.824 26.483 230.006 27.2955 229.403 28.3636C228.813 29.4318 228.517 30.7273 228.517 32.25ZM260.558 48.6136C258.899 48.6136 257.393 48.3011 256.041 47.6761C254.689 47.0398 253.615 46.125 252.82 44.9318C252.024 43.7273 251.626 42.2727 251.626 40.5682C251.626 39.0682 251.922 37.8523 252.513 36.9205C253.104 35.9773 253.893 35.2386 254.882 34.7045C255.871 34.1705 256.962 33.7727 258.155 33.5114C259.359 33.2386 260.57 33.0227 261.786 32.8636C263.376 32.6591 264.666 32.5057 265.655 32.4034C266.655 32.2898 267.382 32.1023 267.837 31.8409C268.303 31.5795 268.536 31.125 268.536 30.4773V30.3409C268.536 28.6591 268.075 27.3523 267.155 26.4205C266.246 25.4886 264.865 25.0227 263.013 25.0227C261.092 25.0227 259.587 25.4432 258.496 26.2841C257.405 27.125 256.638 28.0227 256.195 28.9773L252.376 27.6136C253.058 26.0227 253.967 24.7841 255.104 23.8977C256.251 23 257.501 22.375 258.854 22.0227C260.217 21.6591 261.558 21.4773 262.876 21.4773C263.717 21.4773 264.683 21.5795 265.774 21.7841C266.876 21.9773 267.939 22.3807 268.962 22.9943C269.996 23.608 270.854 24.5341 271.536 25.7727C272.217 27.0114 272.558 28.6705 272.558 30.75V48H268.536V44.4545H268.331C268.058 45.0227 267.604 45.6307 266.967 46.2784C266.331 46.9261 265.484 47.4773 264.428 47.9318C263.371 48.3864 262.081 48.6136 260.558 48.6136ZM261.172 45C262.763 45 264.104 44.6875 265.195 44.0625C266.297 43.4375 267.126 42.6307 267.683 41.642C268.251 40.6534 268.536 39.6136 268.536 38.5227V34.8409C268.365 35.0455 267.99 35.233 267.411 35.4034C266.842 35.5625 266.183 35.7045 265.433 35.8295C264.695 35.9432 263.973 36.0455 263.268 36.1364C262.575 36.2159 262.013 36.2841 261.581 36.3409C260.536 36.4773 259.558 36.6989 258.649 37.0057C257.751 37.3011 257.024 37.75 256.467 38.3523C255.922 38.9432 255.649 39.75 255.649 40.7727C255.649 42.1705 256.166 43.2273 257.2 43.9432C258.246 44.6477 259.57 45 261.172 45ZM291.287 21.8182V25.2273H277.719V21.8182H291.287ZM281.673 15.5455H285.696V40.5C285.696 41.6364 285.861 42.4886 286.19 43.0568C286.531 43.6136 286.963 43.9886 287.486 44.1818C288.02 44.3636 288.582 44.4545 289.173 44.4545C289.616 44.4545 289.98 44.4318 290.264 44.3864C290.548 44.3295 290.776 44.2841 290.946 44.25L291.764 47.8636C291.491 47.9659 291.111 48.0682 290.622 48.1705C290.134 48.2841 289.514 48.3409 288.764 48.3409C287.628 48.3409 286.514 48.0966 285.423 47.608C284.344 47.1193 283.446 46.375 282.73 45.375C282.026 44.375 281.673 43.1136 281.673 41.5909V15.5455Z" fill="black"/>
<g filter="url(#filter0_b_10_13)">
<path d="M7.68182 46V19.8182H11.5682V23.9091H11.9091C12.4545 22.5114 13.3352 21.4261 14.5511 20.6534C15.767 19.8693 17.2273 19.4773 18.9318 19.4773C20.6591 19.4773 22.0966 19.8693 23.2443 20.6534C24.4034 21.4261 25.3068 22.5114 25.9545 23.9091H26.2273C26.8977 22.5568 27.9034 21.483 29.2443 20.6875C30.5852 19.8807 32.1932 19.4773 34.0682 19.4773C36.4091 19.4773 38.3239 20.2102 39.8125 21.6761C41.3011 23.1307 42.0455 25.3977 42.0455 28.4773V46H38.0227V28.4773C38.0227 26.5455 37.4943 25.1648 36.4375 24.3352C35.3807 23.5057 34.1364 23.0909 32.7045 23.0909C30.8636 23.0909 29.4375 23.6477 28.4261 24.7614C27.4148 25.8636 26.9091 27.2614 26.9091 28.9545V46H22.8182V28.0682C22.8182 26.5795 22.3352 25.3807 21.3693 24.4716C20.4034 23.5511 19.1591 23.0909 17.6364 23.0909C16.5909 23.0909 15.6136 23.3693 14.7045 23.9261C13.8068 24.483 13.0795 25.2557 12.5227 26.2443C11.9773 27.2216 11.7045 28.3523 11.7045 29.6364V46H7.68182ZM57.1051 46.6136C55.446 46.6136 53.9403 46.3011 52.5881 45.6761C51.2358 45.0398 50.1619 44.125 49.3665 42.9318C48.571 41.7273 48.1733 40.2727 48.1733 38.5682C48.1733 37.0682 48.4688 35.8523 49.0597 34.9205C49.6506 33.9773 50.4403 33.2386 51.429 32.7045C52.4176 32.1705 53.5085 31.7727 54.7017 31.5114C55.9063 31.2386 57.1165 31.0227 58.3324 30.8636C59.9233 30.6591 61.2131 30.5057 62.2017 30.4034C63.2017 30.2898 63.929 30.1023 64.3835 29.8409C64.8494 29.5795 65.0824 29.125 65.0824 28.4773V28.3409C65.0824 26.6591 64.6222 25.3523 63.7017 24.4205C62.7926 23.4886 61.4119 23.0227 59.5597 23.0227C57.6392 23.0227 56.1335 23.4432 55.0426 24.2841C53.9517 25.125 53.1847 26.0227 52.7415 26.9773L48.9233 25.6136C49.6051 24.0227 50.5142 22.7841 51.6506 21.8977C52.7983 21 54.0483 20.375 55.4006 20.0227C56.7642 19.6591 58.1051 19.4773 59.4233 19.4773C60.2642 19.4773 61.2301 19.5795 62.321 19.7841C63.4233 19.9773 64.4858 20.3807 65.5085 20.9943C66.5426 21.608 67.4006 22.5341 68.0824 23.7727C68.7642 25.0114 69.1051 26.6705 69.1051 28.75V46H65.0824V42.4545H64.8778C64.6051 43.0227 64.1506 43.6307 63.5142 44.2784C62.8778 44.9261 62.0313 45.4773 60.9744 45.9318C59.9176 46.3864 58.6278 46.6136 57.1051 46.6136ZM57.7188 43C59.3097 43 60.6506 42.6875 61.7415 42.0625C62.8438 41.4375 63.6733 40.6307 64.2301 39.642C64.7983 38.6534 65.0824 37.6136 65.0824 36.5227V32.8409C64.9119 33.0455 64.5369 33.233 63.9574 33.4034C63.3892 33.5625 62.7301 33.7045 61.9801 33.8295C61.2415 33.9432 60.5199 34.0455 59.8153 34.1364C59.1222 34.2159 58.5597 34.2841 58.1278 34.3409C57.0824 34.4773 56.1051 34.6989 55.196 35.0057C54.2983 35.3011 53.571 35.75 53.0142 36.3523C52.4688 36.9432 52.196 37.75 52.196 38.7727C52.196 40.1705 52.7131 41.2273 53.7472 41.9432C54.7926 42.6477 56.1165 43 57.7188 43ZM80.1974 36.4545L80.1293 31.4773H80.9474L92.402 19.8182H97.3793L85.1747 32.1591H84.8338L80.1974 36.4545ZM76.4474 46V11.0909H80.4702V46H76.4474ZM93.0838 46L82.8565 33.0455L85.7202 30.25L98.1974 46H93.0838ZM112.456 46.5455C109.933 46.5455 107.757 45.9886 105.928 44.875C104.109 43.75 102.706 42.1818 101.717 40.1705C100.74 38.1477 100.251 35.7955 100.251 33.1136C100.251 30.4318 100.74 28.0682 101.717 26.0227C102.706 23.9659 104.081 22.3636 105.842 21.2159C107.615 20.0568 109.683 19.4773 112.047 19.4773C113.411 19.4773 114.757 19.7045 116.087 20.1591C117.416 20.6136 118.626 21.3523 119.717 22.375C120.808 23.3864 121.678 24.7273 122.325 26.3977C122.973 28.0682 123.297 30.125 123.297 32.5682V34.2727H103.115V30.7955H119.206C119.206 29.3182 118.911 28 118.32 26.8409C117.74 25.6818 116.911 24.767 115.831 24.0966C114.763 23.4261 113.501 23.0909 112.047 23.0909C110.445 23.0909 109.058 23.4886 107.888 24.2841C106.729 25.0682 105.837 26.0909 105.212 27.3523C104.587 28.6136 104.274 29.9659 104.274 31.4091V33.7273C104.274 35.7045 104.615 37.3807 105.297 38.7557C105.99 40.1193 106.95 41.1591 108.178 41.875C109.405 42.5795 110.831 42.9318 112.456 42.9318C113.513 42.9318 114.467 42.7841 115.32 42.4886C116.183 42.1818 116.928 41.7273 117.553 41.125C118.178 40.5114 118.661 39.75 119.001 38.8409L122.888 39.9318C122.479 41.25 121.791 42.4091 120.825 43.4091C119.859 44.3977 118.666 45.1705 117.246 45.7273C115.825 46.2727 114.229 46.5455 112.456 46.5455ZM129.416 46V19.8182H133.303V23.7727H133.575C134.053 22.4773 134.916 21.4261 136.166 20.6193C137.416 19.8125 138.825 19.4091 140.393 19.4091C140.689 19.4091 141.058 19.4148 141.501 19.4261C141.945 19.4375 142.28 19.4545 142.507 19.4773V23.5682C142.371 23.5341 142.058 23.483 141.57 23.4148C141.092 23.3352 140.587 23.2955 140.053 23.2955C138.78 23.2955 137.643 23.5625 136.643 24.0966C135.655 24.6193 134.871 25.3466 134.291 26.2784C133.723 27.1989 133.439 28.25 133.439 29.4318V46H129.416Z" fill="black"/>
</g>
<rect x="144" y="8" width="30" height="40" fill="#0C0B0B"/>
<path d="M168.227 25.6818L164.614 26.7045C164.386 26.1023 164.051 25.517 163.608 24.9489C163.176 24.3693 162.585 23.892 161.835 23.517C161.085 23.142 160.125 22.9545 158.955 22.9545C157.352 22.9545 156.017 23.3239 154.949 24.0625C153.892 24.7898 153.364 25.7159 153.364 26.8409C153.364 27.8409 153.727 28.6307 154.455 29.2102C155.182 29.7898 156.318 30.2727 157.864 30.6591L161.75 31.6136C164.091 32.1818 165.835 33.0511 166.983 34.2216C168.131 35.3807 168.705 36.875 168.705 38.7045C168.705 40.2045 168.273 41.5455 167.409 42.7273C166.557 43.9091 165.364 44.8409 163.83 45.5227C162.295 46.2045 160.511 46.5455 158.477 46.5455C155.807 46.5455 153.597 45.9659 151.847 44.8068C150.097 43.6477 148.989 41.9545 148.523 39.7273L152.341 38.7727C152.705 40.1818 153.392 41.2386 154.403 41.9432C155.426 42.6477 156.761 43 158.409 43C160.284 43 161.773 42.6023 162.875 41.8068C163.989 41 164.545 40.0341 164.545 38.9091C164.545 38 164.227 37.2386 163.591 36.625C162.955 36 161.977 35.5341 160.659 35.2273L156.295 34.2045C153.898 33.6364 152.136 32.7557 151.011 31.5625C149.898 30.358 149.341 28.8523 149.341 27.0455C149.341 25.5682 149.756 24.2614 150.585 23.125C151.426 21.9886 152.568 21.0966 154.011 20.4489C155.466 19.8011 157.114 19.4773 158.955 19.4773C161.545 19.4773 163.58 20.0455 165.057 21.1818C166.545 22.3182 167.602 23.8182 168.227 25.6818Z" fill="#F5F3F3"/>
<path d="M184 8V48" stroke="black" stroke-width="2"/>
<defs>
<filter id="filter0_b_10_13" x="3.68176" y="7.09094" width="142.825" height="43.5227" filterUnits="userSpaceOnUse" color-interpolation-filters="sRGB">
<feFlood flood-opacity="0" result="BackgroundImageFix"/>
<feGaussianBlur in="BackgroundImageFix" stdDeviation="2"/>
<feComposite in2="SourceAlpha" operator="in" result="effect1_backgroundBlur_10_13"/>
<feBlend mode="normal" in="SourceGraphic" in2="effect1_backgroundBlur_10_13" result="shape"/>
</filter>
</defs>
</svg>
